<?xml version="1.0" encoding="UTF-8"?>
<svg id="Layer_1" data-name="Layer 1" xmlns="http://www.w3.org/2000/svg" xmlns:xlink="http://www.w3.org/1999/xlink" viewBox="0 0 3784.49 1699.9">
  <defs>
    <style>
      .cls-1 {
        fill: url(#linear-gradient-2);
      }

      .cls-2 {
        fill: url(#linear-gradient);
      }
    </style>
    <linearGradient id="linear-gradient" x1="2971.19" y1="-445.39" x2="756.28" y2="1744.77" gradientUnits="userSpaceOnUse">
      <stop offset="0" stop-color="#e8d705"/>
      <stop offset="0" stop-color="#ecd004"/>
      <stop offset="0" stop-color="#ffdf55"/>
      <stop offset="0" stop-color="#fff57d"/>
      <stop offset="0" stop-color="#ffe49f"/>
      <stop offset=".01" stop-color="#ffee8a"/>
      <stop offset=".07" stop-color="#ffec90"/>
      <stop offset=".12" stop-color="#ffe45f"/>
      <stop offset=".33" stop-color="#ffb000"/>
      <stop offset=".64" stop-color="#faaa00"/>
      <stop offset=".92" stop-color="#f8af01"/>
    </linearGradient>
    <linearGradient id="linear-gradient-2" x1="2446.16" y1="-976.34" x2="231.26" y2="1213.82" gradientUnits="userSpaceOnUse">
      <stop offset="0" stop-color="#1e1d17"/>
      <stop offset="0" stop-color="#e0d9d2"/>
      <stop offset="0" stop-color="#96918b"/>
      <stop offset="0" stop-color="#fff"/>
      <stop offset=".04" stop-color="#eee"/>
      <stop offset=".18" stop-color="#b9b7b8"/>
      <stop offset=".32" stop-color="#8b8989"/>
      <stop offset=".46" stop-color="#656263"/>
      <stop offset=".6" stop-color="#484545"/>
      <stop offset=".74" stop-color="#332f30"/>
      <stop offset=".87" stop-color="#272324"/>
      <stop offset=".99" stop-color="#231f20"/>
    </linearGradient>
  </defs>
  <path class="cls-2" d="m3569.27,468.41c-18.77-9.24-37.68-18.4-56.59-27.42l-14.22-6.82-14.44-6.3-28.96-12.53c-9.68-4.18-19.28-8.5-29.03-12.46l-29.54-11.29-29.61-11.29-7.4-2.79c-2.49-.95-4.99-1.69-7.48-2.57l-15.03-5.06-30.13-10.04-15.1-4.98c-5.13-1.54-10.19-2.93-15.32-4.4l-30.57-8.72-15.32-4.33-7.7-2.2-7.77-1.91c-20.67-4.98-41.34-9.97-62.16-14.51l-62.89-12.02c-21.11-3.08-42.3-6.38-63.48-9.31l-63.92-6.38-64.29-3.81c-21.48-.37-42.95-.81-64.43-.88-85.99.66-171.97,9.02-256.56,23.53-25.8,4.47-51.53,9.46-77.04,15.1.07-45.59.22-79.02.44-105.04.51-41.86,1.32-64.87,2.86-89.28,3.37-58.64,16.79-87.16,62.01-95.51,20.08-3.37,30.2-5.06,48.6-5.06,20.16,0,30.2-3.3,30.2-15.1s-11.73-15.03-35.19-15.03c-65.39,0-171.02,4.98-211.26,4.98-43.61,0-149.17-4.98-238.01-4.98-25.22,0-36.95,3.3-36.95,15.03s10.12,15.1,28.52,15.1c23.46,0,51.97,1.69,65.39,5.06,55.34,11.73,68.76,38.56,72.06,95.51,2.13,33.35,2.86,64.07,3.15,143.45.15,28.74.15,63.77.15,107.68-68.9,22.36-136.49,47.57-202.98,74.48-38.92,15.83-77.56,32.11-115.89,48.6-12.68,5.5-25.29,11-37.82,16.49-6.52,2.86-13.05,5.72-19.5,8.58l-56.96,25.29c-48.01,21.4-95.73,42.88-143.31,63.99-102.7,45.59-205.03,89.28-308.83,126.52-75.94,27.12-152.54,51.24-230.24,69.49-74.7,17.67-150.27,30.35-226.58,37.16-3.08.29-6.08.59-9.16.81l-29.83,2.35-29.83,1.39-14.88.66c-4.98.22-9.97.59-14.95.51l-29.98.15-14.95.07h-7.48l-7.48-.29-29.98-1.1c-7.18-.37-14.44-.44-21.7-.88-2.79-.15-5.5-.29-8.28-.59l-29.98-2.2c-20.01-1.1-39.88-3.96-59.89-6.16-20.01-1.98-39.8-5.64-59.82-8.65l-14.95-2.27-7.48-1.17c-2.49-.44-4.98-.95-7.4-1.47l-29.76-5.86c-9.9-2.05-19.87-3.81-29.76-6.01l-29.61-7.11-29.69-6.96c-9.82-2.49-19.57-5.42-29.39-8.06-19.57-5.64-39.36-10.63-58.79-17.08l-29.25-9.24-14.66-4.62c-2.42-.81-4.91-1.54-7.33-2.35l-7.18-2.64c-19.28-6.96-38.7-13.71-58.06-20.52-77.04-28.88-152.91-61.79-228.63-96.39,67.66,48.38,138.4,92.88,212.14,132.83,73.89,39.66,151,74.04,230.76,102.62l29.98,10.63c10.12,3.3,20.31,6.23,30.42,9.38l30.49,9.31c2.57.81,5.06,1.61,7.62,2.35l7.77,1.98,15.39,4.03c20.67,5.35,41.27,10.92,62.23,14.88,20.96,4.25,41.78,9.09,62.97,12.17,16.57,2.57,33.06,5.57,49.63,7.7-.37,37.9-1.1,72.64-2.27,103.06-1.17,31.89-3.01,59.08-5.57,80.56-6.67,48.67-15.1,85.54-48.6,92.22-15.1,3.37-35.19,6.74-60.33,6.74-20.16,0-26.83,4.98-26.83,13.41,0,11.73,11.73,16.71,33.5,16.71,33.5,0,77.11-3.3,115.67-3.3,40.24-1.69,77.11-1.69,95.59-1.69,41.86,0,100.57,4.98,164.27,10.04,63.7,5.06,132.46,10.04,192.79,10.04,310.15,0,484.46-119.04,561.58-197.84,28.73-29.17,56.88-64.43,82.17-105.41,44.57-20.96,88.26-43.03,131.43-65.46l107.39-56.08c35.48-18.69,71.18-36.72,106.95-54.39,34.75-17.3,69.86-33.5,105.19-49.19v213.24c0,328.54,1.69,496.19-125.71,625.28-33.5,33.5-58.64,51.97-80.49,63.7-28.51,15.1-36.87,21.77-36.87,30.2s6.74,13.41,13.41,13.41c8.36,0,21.77-3.37,33.5-10.04,35.26-16.79,62.09-30.2,83.86-43.62,160.9-98.89,249.82-214.56,285-316.82,33.5-93.9,40.24-201.22,40.24-296.8,0-83.79-5.06-164.27-5.06-236.33v-118.82c43.98-13.05,88.62-24.19,133.85-33.28,39.14-7.92,78.73-14.15,118.68-19.28,39.95-4.98,80.27-8.65,120.95-11.95-40.17-6.96-80.93-11.29-121.9-13.49-40.9-2.2-82.17-2.05-123.37.22-42.88,2.42-85.69,7.4-128.21,14.73-39.22,6.74-78.14,15.39-116.63,25.8-10.04,2.71-19.94,5.72-29.91,8.5-9.97,2.93-19.87,6.08-29.76,9.09-9.9,3.15-19.65,6.6-29.54,9.9l-2.05.73-27.2,9.68c-38.92,14.07-77.04,30.13-114.72,46.62-37.6,16.71-74.48,34.6-111.13,52.56-18.25,9.02-36.43,18.25-54.54,27.49l-53.95,27.86c-8.87,4.62-17.67,9.16-26.53,13.71-62.67,32.62-124.91,64.87-188.02,94.12-17.08,8.06-34.31,15.76-51.6,23.24-18.99,8.28-38.12,16.27-57.25,23.97l-27.56,10.7-27.78,10.19-27.93,9.75c-9.38,3.01-18.69,6.16-28.07,9.02-75.21,23.75-152.54,40.9-231.56,51.61-39.44,5.35-79.39,8.87-119.56,11.22-40.24,2.27-80.71,3.08-121.46,3.45,39.58,9.75,79.9,16.86,120.66,21.84,40.68,5.06,81.88,7.7,123.15,8.06,82.69.51,165.89-8.87,247.18-26.98,10.19-2.35,20.23-4.84,30.42-7.26l30.2-7.92c1.61-.44,3.23-.88,4.84-1.39-1.1,1.03-2.27,2.05-3.37,3.01-100.64,87.16-214.63,120.66-385.65,120.66-132.39,0-197.77-35.19-219.54-67.07-7.92-10.85-12.32-38.48-14.95-68.03-1.83-20.6-2.86-42.15-3.52-59.38-.44-8.21-.88-22.87-1.25-43.1,84.45-1.61,168.67-11.07,251.43-26.54,10.56-1.91,21.04-4.25,31.52-6.38,10.48-2.2,21.04-4.33,31.52-6.67l31.23-7.48c10.34-2.57,20.82-4.91,31.08-7.77,41.34-11,82.32-22.87,122.71-36.21,80.93-26.24,159.87-56.52,237.43-88.48,7.84-3.23,15.69-6.52,23.46-9.82,11.51-4.84,22.94-9.75,34.45-14.59l57.47-24.78,113.91-50.43c7.18-3.23,14.44-6.45,21.62-9.6,117.87-52.56,234.57-104.46,352.88-148.66,25.95-9.82,51.97-19.13,78.14-28.08,19.06-6.38,38.12-13.05,57.32-18.77l28.73-9.02c9.6-3.01,19.28-5.57,28.88-8.36l14.81-4.18,14.15-4.03,29.03-7.4,14.51-3.74c4.84-1.32,9.75-2.49,14.59-3.59l29.25-6.52c77.99-17.3,156.94-29.25,236.55-35.11,19.86-1.32,39.8-2.05,59.81-3.3l59.96-.95,60.03,1.47c20.01,1.47,40.02,2.57,60.11,3.74l60.03,6.08c20.01,2.49,39.95,5.72,59.96,8.28l7.55,1.03,7.48,1.32,14.88,2.64,29.91,5.35c4.98.95,10.04,1.76,15.03,2.71l14.81,3.3,29.76,6.52,14.95,3.15c2.49.59,4.98,1.03,7.48,1.69l7.4,1.83,29.54,7.62,29.69,7.55,29.39,8.58,29.54,8.58,14.73,4.33,14.59,4.84,58.57,19.21c77.63,27.2,154.3,58.35,230.98,90.82-68.91-46.62-140.67-89.43-215.22-127.84Z"/>
  <path class="cls-1" d="m599.11,30.13c23.53,0,51.97,1.69,65.39,5.06,55.34,11.73,68.76,38.56,72.13,95.51,3.37,53.66,3.37,100.65,3.37,355.45v267.04l.81.07,1.61.22c.81.07,3.67.22,3.67.22,3.01.15,6.08.22,9.09.37,3.67.07,7.26.22,10.92.37l34.97,1.32,51.02-.22h1.03c1.25,0,2.71-.07,4.18-.22l47.43-2.13,29.17-2.35c1.98-.15,3.89-.29,5.86-.51l1.25-.07c2.86-.29,5.72-.51,8.65-.88-.07-25-.15-51.31-.15-78.8v-211.26c0-132.46,0-278.26,1.69-335.29,0-18.4,5.06-26.83,20.16-33.5,13.34-6.74,75.43-11.73,108.93-11.73,130.77,0,321.87,20.08,476.1,167.64,53.22,50.65,115.6,138.84,144.48,267.12,19.5-8.58,39-17.37,58.5-26.1,19.28-8.65,38.63-17.3,57.98-25.95l57.1-25.29c6.67-3.01,13.34-5.94,19.94-8.8,6.23-2.71,12.46-5.5,18.69-8.21-30.27-98.01-81-173.36-133.7-228.12C1596.61,0,1316.67,0,1107.1,0c-100.57,0-206.2,4.98-258.17,4.98-46.91,0-152.54-4.98-241.39-4.98-25.14,0-36.87,3.3-36.87,15.03s10.04,15.1,28.44,15.1Z"/>
</svg>